<svg width="84" height="84" viewBox="0 0 84 84" fill="none" xmlns="http://www.w3.org/2000/svg">
<path d="M15.4005 55.7753C14.8715 55.2466 14.0139 55.2463 13.4847 55.7753C12.9557 56.3045 12.9557 57.1621 13.4847 57.6911L26.308 70.5146C26.5726 70.779 26.9192 70.9112 27.266 70.9112C27.6126 70.9112 27.9594 70.779 28.224 70.5146C28.753 69.9854 28.753 69.1278 28.224 68.5988L15.4005 55.7753Z" fill="#FF706D"/>
<path d="M83.883 9.65038C83.9193 9.49396 84.7339 5.7839 81.4749 2.52467C78.2156 -0.734391 74.5058 0.079651 74.3492 0.116497C74.1024 0.173572 73.8767 0.299101 73.6975 0.478093L73.1773 0.99827L72.858 0.678939C72.3288 0.150092 71.4714 0.149911 70.9424 0.679119C70.4133 1.20815 70.4133 2.0659 70.9426 2.59475L71.2617 2.9139L69.8193 4.3563L69.5 4.03697C68.9707 3.50813 68.1134 3.50795 67.5843 4.03715C67.0553 4.56618 67.0553 5.42393 67.5845 5.95278L67.9037 6.27193L66.4613 7.71434L66.1419 7.39501C65.6127 6.86616 64.7551 6.86616 64.2261 7.39501C63.6971 7.92422 63.6971 8.78179 64.2261 9.31081L64.8129 9.89764L62.7866 13.9503L48.1989 27.9928C45.2109 25.6874 39.308 22.3405 33.1592 25.6319C29.0607 27.8201 27.9694 30.6085 27.0067 33.0685C26.2396 35.0287 25.5771 36.7215 23.5038 38.2578C22.5395 38.9716 20.7591 39.3265 18.6976 39.7374C13.5473 40.764 6.49381 42.17 1.85881 50.7377C-3.66302 60.9469 4.52472 70.8428 8.30558 74.6278L9.37827 75.6987C12.2522 78.5725 18.6629 83.9998 26.063 83.9998C28.3911 83.9996 30.8174 83.4623 33.262 82.1395C41.8301 77.5046 43.2362 70.4528 44.2627 65.3038C44.6736 63.2427 45.0285 61.4628 45.7421 60.4988C47.2781 58.425 48.9712 57.7621 50.9316 56.9947C53.3922 56.0314 56.1811 54.9396 58.3674 50.8423C61.659 44.6926 58.3113 38.7895 56.0053 35.8016L70.0456 21.216L74.1024 19.1875L74.6884 19.7732C74.953 20.0377 75.2996 20.1699 75.6462 20.1699C75.9928 20.1699 76.3396 20.0377 76.6042 19.7731C77.1332 19.244 77.1332 18.3863 76.604 17.8574L76.2848 17.5383L77.7272 16.0959L78.0464 16.415C78.311 16.6795 78.6578 16.8117 79.0044 16.8117C79.351 16.8117 79.6978 16.6795 79.9624 16.415C80.4914 15.8858 80.4914 15.0283 79.9624 14.4992L79.6432 14.1801L81.0855 12.7378L81.4046 13.057C81.6692 13.3214 82.016 13.4536 82.3626 13.4536C82.7092 13.4536 83.056 13.3214 83.3206 13.057C83.8496 12.5278 83.8496 11.6702 83.3206 11.1412L83.0014 10.822L83.5214 10.302C83.7004 10.1229 83.826 9.8971 83.883 9.65038ZM55.978 49.5655C54.262 52.7818 52.2609 53.5653 49.9442 54.4722C47.8915 55.2757 45.5649 56.1866 43.5648 58.887C42.4903 60.3386 42.0803 62.394 41.6058 64.7744C40.6328 69.6543 39.422 75.7274 31.9728 79.7569C23.3604 84.4176 14.6427 77.1317 11.2959 73.785L10.218 72.7091C6.87022 69.3577 -0.413352 60.6339 4.24151 52.0271C8.27108 44.5785 14.3456 43.3678 19.227 42.3946C21.6077 41.9202 23.6636 41.5103 25.116 40.4351C27.8157 38.4344 28.726 36.1083 29.5294 34.0561C30.4359 31.7397 31.2189 29.7393 34.4362 28.0215C39.0371 25.5586 43.656 27.9975 46.2224 29.8954L37.442 38.3474C37.3136 38.3418 37.1848 38.338 37.0555 38.338C34.7476 38.338 32.58 39.2347 30.9528 40.8618C29.3258 42.4853 28.43 44.6489 28.4305 46.9538C28.4309 49.2586 29.3276 51.4219 30.9534 53.0429C32.5785 54.6705 34.7432 55.5669 37.049 55.5669C39.3548 55.5669 41.5186 54.6703 43.1387 53.0456C44.7644 51.4268 45.6614 49.266 45.6641 46.9612C45.6643 46.8252 45.6607 46.6895 45.6547 46.5546L54.1031 37.7781C56.0014 40.3443 58.4411 44.9636 55.978 49.5655ZM37.8022 41.0953C39.0974 41.2568 40.2934 41.8351 41.2265 42.7664C42.1616 43.7021 42.7424 44.8989 42.9057 46.1948C42.9071 46.2086 42.909 46.2223 42.9108 46.236C42.9391 46.4737 42.955 46.7145 42.9546 46.9579C42.9527 48.538 42.3391 50.018 41.2234 51.1291C40.1121 52.2437 38.6294 52.8574 37.0488 52.8574C35.4675 52.8574 33.9836 52.2435 32.8683 51.1264C31.7539 50.0153 31.1399 48.5331 31.1398 46.9532C31.1394 45.3734 31.7528 43.8911 32.8674 42.7786C33.9839 41.6622 35.4711 41.0474 37.0555 41.0474C37.2936 41.0474 37.5289 41.063 37.7615 41.0904C37.7749 41.092 37.7885 41.0938 37.8022 41.0953ZM44.9125 43.4189C44.4892 42.4741 43.8949 41.6039 43.1416 40.85C42.3902 40.1003 41.5225 39.5087 40.5803 39.0872L63.875 16.663L67.3342 20.1264L44.9125 43.4189ZM81.2854 8.70647L80.1311 9.8608C80.1298 9.86206 80.1286 9.86296 80.1275 9.86405C80.1262 9.86531 80.1253 9.86657 80.1242 9.86766L76.7731 13.2188C76.7718 13.2201 76.7705 13.221 76.7694 13.2221C76.7682 13.2233 76.7673 13.2246 76.7662 13.2257L73.5638 16.428L69.4996 18.4602L65.5417 14.4978L67.5744 10.4324L75.292 2.71486C76.0358 2.66031 77.8548 2.73581 79.5591 4.44029C81.2677 6.14911 81.3396 7.97298 81.2854 8.70647Z" fill="#FF706D"/>
</svg>
