<svg xmlns="http://www.w3.org/2000/svg" xmlns:svgjs="http://svgjs.com/svgjs" xmlns:xlink="http://www.w3.org/1999/xlink" width="288" height="288"><svg xmlns="http://www.w3.org/2000/svg" width="288" height="288" viewBox="0 0 139.25 78.49"><g fill="#f1f1f1" class="color000 svgShape" data-name="Слой 2"><path stroke="#f1f1f1" stroke-miterlimit="10" d="M31.22,53.43c-.07-.55-1.39-.37-3.39-1.41a11.55,11.55,0,0,1-4.66-4.8c-.51-1-2.52-4.87-.7-8.76a9.56,9.56,0,0,1,8.19-5.22c.61,0,6.19-.13,6.35-.14A4,4,0,0,0,39.2,32c.25-.23.93-.89,1.9-4.1.67-2.18.6-2.69,1.27-3.38a4.84,4.84,0,0,1,2.33-1.2,10,10,0,0,1,3.95-.18,32,32,0,0,1,4.59.74,22.19,22.19,0,0,0,4.88.5,28.16,28.16,0,0,0,6.56-1c1.14-.27,2.72-.73,5.86-1.66,1.23-.36,2.16-.65,2.58-.78,2.26-.7,3.93-1.24,4.44-1.41,19.3-6.32,29.54-9.14,29.54-9.14,2.27-.62,5.87-1.59,10.38-2.68a6,6,0,0,1,3.32.49,6.27,6.27,0,0,1,3,3.11l4.52-.29a5.46,5.46,0,0,0,.07-1.69,6.19,6.19,0,0,0-1.63-3.39,7.82,7.82,0,0,0-2.53-2c0-1-.05-2-.07-3A26.39,26.39,0,0,1,117.55,4a26.55,26.55,0,0,1-6.85,1.13,9.53,9.53,0,0,1-2,2.32A9.8,9.8,0,0,1,105,9.36c-5.65,1.5-45,12-47.27,11.81a2.84,2.84,0,0,1-1.53-.54,3,3,0,0,1-.89-1.84,9,9,0,0,1,.12-2.44c0-.25.09-1.11.11-1.93a9.12,9.12,0,0,0-.18-3.18,4.65,4.65,0,0,0-1.91-2.31c-2.73-1.65-7.4.56-9.81,2.38,0,0-4.72,3.55-5.46,4.07-.33.23-.67.43-.67.43h0a11.25,11.25,0,0,1-1.73.84,13.31,13.31,0,0,1-3,.71c-3.18.33-10.57-2.34-16.65-2.83C12.81,14.27,9.61,14,6.52,16,2.26,18.6,1,23.67.87,24.13A15.06,15.06,0,0,0,.51,27.8a15.39,15.39,0,0,0,.71,4c.21.71.44,1.29.89,2.44.36.92.89,2.26,1.61,3.76a42.07,42.07,0,0,0,2.56,4.62,48.77,48.77,0,0,0,4.28,5.65A33.09,33.09,0,0,0,14.14,52c2,1.69,4.4,3.71,7.69,4.3C26.54,57.17,31.36,54.5,31.22,53.43Z" class="colorStroke000 svgStroke"/><circle cx="111.75" cy="3.05" r=".93" class="color000 svgShape"/><line x1="112.33" x2="111.8" y1="4.85" y2="3.19" fill="none" stroke="#f1f1f1" stroke-miterlimit="10" stroke-width=".5" class="colorStroke000 svgStroke"/><circle cx="115.94" cy="2.13" r=".93" class="color000 svgShape"/><line x1="116.51" x2="115.98" y1="3.92" y2="2.26" fill="none" stroke="#f1f1f1" stroke-miterlimit="10" stroke-width=".5" class="colorStroke000 svgStroke"/><circle cx="120.12" cy="1.01" r=".93" class="color000 svgShape"/><line x1="120.69" x2="120.16" y1="2.81" y2="1.15" fill="none" stroke="#f1f1f1" stroke-miterlimit="10" stroke-width=".5" class="colorStroke000 svgStroke"/><text font-family="Roboto-Black,Roboto" font-size="22.86" font-weight="800" transform="translate(31.78 52.29)" svgjs:data="{&quot;leading&quot;:&quot;1.3&quot;}">GU<tspan x="30.77" y="0" letter-spacing="-.01em">I</tspan><tspan x="37.34" y="0" letter-spacing="-.06em">T</tspan><tspan x="50.41" y="0" letter-spacing="0">AR</tspan></text><text font-family="Roboto-Light,Roboto" font-size="22.86" font-weight="300" transform="translate(51.72 72.3)" svgjs:data="{&quot;leading&quot;:&quot;1.3&quot;}">SCHOOL</text></g></svg></svg>