<svg width="121" height="66" viewBox="0 0 121 66" fill="none" xmlns="http://www.w3.org/2000/svg">
<g clip-path="url(#clip0_59_31)">
<g clip-path="url(#clip1_59_31)">
<path d="M27.3454 48.9678C27.2873 48.5111 26.1933 48.6606 24.5357 47.7971C22.884 46.8794 21.5403 45.4927 20.6735 43.8116C20.2508 42.9813 18.5849 39.768 20.0933 36.5381C20.7351 35.2741 21.7032 34.2054 22.897 33.4431C24.0907 32.6809 25.4665 32.253 26.8812 32.2039C27.3868 32.2039 32.0115 32.096 32.1441 32.0877C32.8296 31.981 33.4645 31.6615 33.9592 31.1743C34.1664 30.9834 34.73 30.4353 35.5339 27.7701C36.0892 25.96 36.0312 25.5365 36.5865 24.9636C37.1265 24.4599 37.7947 24.1151 38.5176 23.9673C39.588 23.6996 40.7011 23.6488 41.7914 23.8178C43.0726 23.9299 44.344 24.1353 45.5956 24.4322C46.9243 24.7199 48.2808 24.8592 49.6401 24.8474C51.4788 24.7863 53.3037 24.5076 55.077 24.0171C56.0219 23.7929 57.3314 23.411 59.9338 22.6388C60.9533 22.3399 61.724 22.0991 62.0721 21.9911C63.9452 21.4099 65.3293 20.9616 65.752 20.8204C81.7479 15.5729 90.2348 13.2314 90.2348 13.2314C92.1162 12.7166 95.0999 11.9112 98.8378 11.0062C99.7749 10.8768 100.729 11.018 101.589 11.413C102.697 11.9514 103.579 12.8666 104.076 13.9953L107.822 13.7545C107.914 13.2926 107.934 12.8192 107.88 12.3513C107.732 11.2954 107.26 10.3117 106.529 9.53654C105.953 8.84306 105.239 8.2775 104.432 7.87593C104.432 7.04562 104.391 6.21532 104.374 5.38501C102.674 6.48154 100.83 7.33659 98.8958 7.92575C97.0525 8.48609 95.1438 8.80154 93.2185 8.86399C92.7732 9.59144 92.2135 10.2419 91.5609 10.7903C90.6639 11.5329 89.6181 12.0737 88.4943 12.3762C83.8116 13.6216 51.1983 22.3399 49.3169 22.1821C48.8597 22.1594 48.419 22.0035 48.0488 21.7337C47.632 21.3267 47.371 20.786 47.3112 20.206C47.2523 19.5293 47.2857 18.8477 47.4106 18.18C47.4106 17.9725 47.4852 17.2584 47.5018 16.5775C47.6071 15.6955 47.5566 14.8017 47.3526 13.9372C47.0507 13.1403 46.4941 12.4659 45.7696 12.0192C43.507 10.6492 39.6365 12.4841 37.6391 13.9953C37.6391 13.9953 33.7271 16.9429 33.1138 17.3746C32.8403 17.5656 32.5585 17.7317 32.5585 17.7317C32.1013 18.0047 31.6216 18.2381 31.1247 18.4291C30.3215 18.7214 29.4871 18.9193 28.6383 19.0186C26.0027 19.2926 19.8779 17.0757 14.8387 16.6689C12.0871 16.453 9.43496 16.2288 6.87396 17.8894C3.34327 20.0482 2.29898 24.2579 2.19123 24.6398C1.96755 25.6395 1.86734 26.6629 1.89286 27.687C1.94166 28.8153 2.13953 29.9321 2.48131 31.0083C2.65536 31.5978 2.84599 32.0794 3.21895 33.0342C3.51732 33.7981 3.95658 34.9107 4.55332 36.1562C5.17966 37.4781 5.8883 38.7593 6.67505 39.9922C7.74233 41.64 8.92788 43.2079 10.2223 44.6834C11.1292 45.7917 12.1213 46.8272 13.1894 47.7805C14.847 49.1837 16.8362 50.8609 19.5629 51.3508C23.4666 52.0731 27.4614 49.8562 27.3454 48.9678Z" fill="white" stroke="white" stroke-width="2.06822" stroke-miterlimit="10"/>
<path d="M94.0887 7.90918C94.5144 7.90918 94.8595 7.56346 94.8595 7.13699C94.8595 6.71053 94.5144 6.36481 94.0887 6.36481C93.663 6.36481 93.3179 6.71053 93.3179 7.13699C93.3179 7.56346 93.663 7.90918 94.0887 7.90918Z" fill="white"/>
<path d="M94.5694 8.63154L94.1302 7.25323" stroke="white" stroke-width="1.03411" stroke-miterlimit="10"/>
<path d="M97.5614 7.14526C97.9871 7.14526 98.3322 6.79954 98.3322 6.37308C98.3322 5.94661 97.9871 5.60089 97.5614 5.60089C97.1357 5.60089 96.7906 5.94661 96.7906 6.37308C96.7906 6.79954 97.1357 7.14526 97.5614 7.14526Z" fill="white"/>
<path d="M98.0338 7.85933L97.5945 6.48102" stroke="white" stroke-width="1.03411" stroke-miterlimit="10"/>
<path d="M101.026 6.21533C101.451 6.21533 101.797 5.86961 101.797 5.44314C101.797 5.01668 101.451 4.67096 101.026 4.67096C100.6 4.67096 100.255 5.01668 100.255 5.44314C100.255 5.86961 100.6 6.21533 101.026 6.21533Z" fill="white"/>
<path d="M101.498 6.9377L101.059 5.55939" stroke="white" stroke-width="1.03411" stroke-miterlimit="10"/>
<path d="M52.7443 54.1818C52.6676 53.5341 52.3565 53.0312 51.8111 52.6733C51.2656 52.3153 50.5966 52.1364 49.804 52.1364C49.2244 52.1364 48.7173 52.2301 48.2827 52.4176C47.8523 52.6051 47.5156 52.8629 47.2727 53.1911C47.0341 53.5192 46.9148 53.892 46.9148 54.3097C46.9148 54.6591 46.9979 54.9595 47.1641 55.2109C47.3345 55.4581 47.5518 55.6648 47.8161 55.831C48.0803 55.9929 48.3572 56.1271 48.647 56.2337C48.9368 56.3359 49.2031 56.419 49.446 56.483L50.7756 56.8409C51.1165 56.9304 51.4957 57.054 51.9134 57.2116C52.3352 57.3693 52.7379 57.5845 53.1214 57.8572C53.5092 58.1257 53.8288 58.4709 54.0803 58.8928C54.3317 59.3146 54.4574 59.8324 54.4574 60.446C54.4574 61.1534 54.272 61.7926 53.9013 62.3636C53.5348 62.9347 52.9979 63.3885 52.2905 63.7251C51.5874 64.0618 50.733 64.2301 49.7273 64.2301C48.7898 64.2301 47.978 64.0788 47.2919 63.7763C46.6101 63.4737 46.0732 63.0518 45.6811 62.5107C45.2933 61.9695 45.0739 61.3409 45.0227 60.625H46.6591C46.7017 61.1193 46.8679 61.5284 47.1577 61.8523C47.4517 62.1719 47.8224 62.4105 48.2699 62.5682C48.7216 62.7216 49.2074 62.7983 49.7273 62.7983C50.3324 62.7983 50.8757 62.7003 51.3572 62.5043C51.8388 62.304 52.2202 62.027 52.5014 61.6733C52.7827 61.3153 52.9233 60.8977 52.9233 60.4205C52.9233 59.9858 52.8018 59.6321 52.5589 59.3594C52.3161 59.0866 51.9964 58.8651 51.6001 58.6946C51.2038 58.5241 50.7756 58.375 50.3153 58.2472L48.7045 57.7869C47.6818 57.4929 46.8722 57.0732 46.2756 56.5277C45.679 55.9822 45.3807 55.2685 45.3807 54.3864C45.3807 53.6534 45.5788 53.0142 45.9751 52.4688C46.3757 51.919 46.9126 51.4929 47.5859 51.1903C48.2635 50.8835 49.0199 50.7301 49.8551 50.7301C50.6989 50.7301 51.4489 50.8814 52.1051 51.1839C52.7614 51.4822 53.2813 51.8913 53.6648 52.4112C54.0526 52.9311 54.2571 53.5213 54.2784 54.1818H52.7443ZM67.8678 55H66.2826C66.1889 54.544 66.0248 54.1435 65.7904 53.7983C65.5603 53.4531 65.2791 53.1634 64.9467 52.929C64.6185 52.6903 64.2542 52.5114 63.8536 52.392C63.4531 52.2727 63.0354 52.2131 62.6008 52.2131C61.8082 52.2131 61.0901 52.4134 60.4467 52.8139C59.8075 53.2145 59.2982 53.8047 58.919 54.5845C58.544 55.3643 58.3565 56.321 58.3565 57.4545C58.3565 58.5881 58.544 59.5447 58.919 60.3246C59.2982 61.1044 59.8075 61.6946 60.4467 62.0952C61.0901 62.4957 61.8082 62.696 62.6008 62.696C63.0354 62.696 63.4531 62.6364 63.8536 62.517C64.2542 62.3977 64.6185 62.2209 64.9467 61.9865C65.2791 61.7479 65.5603 61.456 65.7904 61.1108C66.0248 60.7614 66.1889 60.3608 66.2826 59.9091H67.8678C67.7485 60.5781 67.5312 61.1768 67.2158 61.7053C66.9005 62.2337 66.5085 62.6832 66.0397 63.054C65.571 63.4205 65.0447 63.6996 64.4609 63.8913C63.8813 64.0831 63.2613 64.179 62.6008 64.179C61.4843 64.179 60.4914 63.9062 59.6221 63.3608C58.7528 62.8153 58.0688 62.0398 57.5702 61.0341C57.0717 60.0284 56.8224 58.8352 56.8224 57.4545C56.8224 56.0739 57.0717 54.8807 57.5702 53.875C58.0688 52.8693 58.7528 52.0938 59.6221 51.5483C60.4914 51.0028 61.4843 50.7301 62.6008 50.7301C63.2613 50.7301 63.8813 50.826 64.4609 51.0178C65.0447 51.2095 65.571 51.4908 66.0397 51.8615C66.5085 52.228 66.9005 52.6754 67.2158 53.2038C67.5312 53.728 67.7485 54.3267 67.8678 55ZM70.6994 64V50.9091H72.2847V56.7386H79.2648V50.9091H80.85V64H79.2648V58.1449H72.2847V64H70.6994ZM95.3391 57.4545C95.3391 58.8352 95.0898 60.0284 94.5913 61.0341C94.0927 62.0398 93.4087 62.8153 92.5394 63.3608C91.6701 63.9062 90.6772 64.179 89.5607 64.179C88.4442 64.179 87.4513 63.9062 86.582 63.3608C85.7127 62.8153 85.0288 62.0398 84.5302 61.0341C84.0316 60.0284 83.7823 58.8352 83.7823 57.4545C83.7823 56.0739 84.0316 54.8807 84.5302 53.875C85.0288 52.8693 85.7127 52.0938 86.582 51.5483C87.4513 51.0028 88.4442 50.7301 89.5607 50.7301C90.6772 50.7301 91.6701 51.0028 92.5394 51.5483C93.4087 52.0938 94.0927 52.8693 94.5913 53.875C95.0898 54.8807 95.3391 56.0739 95.3391 57.4545ZM93.805 57.4545C93.805 56.321 93.6154 55.3643 93.2361 54.5845C92.8611 53.8047 92.3519 53.2145 91.7084 52.8139C91.0692 52.4134 90.3533 52.2131 89.5607 52.2131C88.7681 52.2131 88.0501 52.4134 87.4066 52.8139C86.7674 53.2145 86.2582 53.8047 85.8789 54.5845C85.5039 55.3643 85.3164 56.321 85.3164 57.4545C85.3164 58.5881 85.5039 59.5447 85.8789 60.3246C86.2582 61.1044 86.7674 61.6946 87.4066 62.0952C88.0501 62.4957 88.7681 62.696 89.5607 62.696C90.3533 62.696 91.0692 62.4957 91.7084 62.0952C92.3519 61.6946 92.8611 61.1044 93.2361 60.3246C93.6154 59.5447 93.805 58.5881 93.805 57.4545ZM109.32 57.4545C109.32 58.8352 109.071 60.0284 108.572 61.0341C108.074 62.0398 107.39 62.8153 106.52 63.3608C105.651 63.9062 104.658 64.179 103.542 64.179C102.425 64.179 101.432 63.9062 100.563 63.3608C99.6936 62.8153 99.0097 62.0398 98.5111 61.0341C98.0125 60.0284 97.7632 58.8352 97.7632 57.4545C97.7632 56.0739 98.0125 54.8807 98.5111 53.875C99.0097 52.8693 99.6936 52.0938 100.563 51.5483C101.432 51.0028 102.425 50.7301 103.542 50.7301C104.658 50.7301 105.651 51.0028 106.52 51.5483C107.39 52.0938 108.074 52.8693 108.572 53.875C109.071 54.8807 109.32 56.0739 109.32 57.4545ZM107.786 57.4545C107.786 56.321 107.596 55.3643 107.217 54.5845C106.842 53.8047 106.333 53.2145 105.689 52.8139C105.05 52.4134 104.334 52.2131 103.542 52.2131C102.749 52.2131 102.031 52.4134 101.388 52.8139C100.748 53.2145 100.239 53.8047 99.8598 54.5845C99.4848 55.3643 99.2973 56.321 99.2973 57.4545C99.2973 58.5881 99.4848 59.5447 99.8598 60.3246C100.239 61.1044 100.748 61.6946 101.388 62.0952C102.031 62.4957 102.749 62.696 103.542 62.696C104.334 62.696 105.05 62.4957 105.689 62.0952C106.333 61.6946 106.842 61.1044 107.217 60.3246C107.596 59.5447 107.786 58.5881 107.786 57.4545ZM112.256 64V50.9091H113.841V62.5938H119.926V64H112.256Z" fill="white"/>
<path d="M41.8182 39.1406C41.7287 38.8295 41.603 38.5547 41.4411 38.3161C41.2791 38.0732 41.081 37.8686 40.8466 37.7024C40.6165 37.532 40.3523 37.402 40.054 37.3125C39.7599 37.223 39.4339 37.1783 39.076 37.1783C38.407 37.1783 37.8189 37.3445 37.3118 37.6768C36.8089 38.0092 36.4169 38.4929 36.1357 39.1278C35.8544 39.7585 35.7138 40.5298 35.7138 41.4418C35.7138 42.3537 35.8523 43.1293 36.1293 43.7685C36.4063 44.4077 36.7983 44.8956 37.3054 45.2322C37.8125 45.5646 38.4112 45.7308 39.1016 45.7308C39.728 45.7308 40.2628 45.62 40.706 45.3984C41.1534 45.1726 41.4943 44.8551 41.7287 44.446C41.9673 44.0369 42.0866 43.5533 42.0866 42.995L42.6491 43.0781H39.2741V40.9943H44.7521V42.6435C44.7521 43.794 44.5092 44.7827 44.0234 45.6094C43.5376 46.4318 42.8686 47.0668 42.0163 47.5142C41.1641 47.9574 40.1882 48.179 39.0888 48.179C37.8615 48.179 36.7834 47.9084 35.8544 47.3672C34.9254 46.8217 34.201 46.0483 33.6811 45.0469C33.1655 44.0412 32.9077 42.848 32.9077 41.4673C32.9077 40.4062 33.0611 39.4602 33.3679 38.6293C33.679 37.794 34.1136 37.0866 34.6719 36.5071C35.2301 35.9276 35.88 35.4865 36.6214 35.1839C37.3629 34.8814 38.1662 34.7301 39.0312 34.7301C39.7727 34.7301 40.4631 34.8388 41.1023 35.0561C41.7415 35.2692 42.3082 35.5717 42.8026 35.9638C43.3011 36.3558 43.7081 36.8224 44.0234 37.3636C44.3388 37.9006 44.5412 38.4929 44.6307 39.1406H41.8182ZM55.6371 34.9091H58.4048V43.4105C58.4048 44.3651 58.1769 45.2003 57.7209 45.9162C57.2692 46.6321 56.6364 47.1903 55.8225 47.5909C55.0085 47.9872 54.0604 48.1854 52.978 48.1854C51.8913 48.1854 50.9411 47.9872 50.1271 47.5909C49.3132 47.1903 48.6804 46.6321 48.2287 45.9162C47.777 45.2003 47.5511 44.3651 47.5511 43.4105V34.9091H50.3189V43.174C50.3189 43.6726 50.4276 44.1158 50.6449 44.5036C50.8665 44.8913 51.1776 45.196 51.5781 45.4176C51.9787 45.6392 52.4453 45.75 52.978 45.75C53.5149 45.75 53.9815 45.6392 54.3778 45.4176C54.7784 45.196 55.0874 44.8913 55.3047 44.5036C55.5263 44.1158 55.6371 43.6726 55.6371 43.174V34.9091ZM64.1698 34.9091V48H61.402V34.9091H64.1698ZM66.6683 37.1911V34.9091H77.4198V37.1911H73.412V48H70.6762V37.1911H66.6683ZM80.5671 48H77.6012L82.1204 34.9091H85.6872L90.2 48H87.234L83.9549 37.9006H83.8527L80.5671 48ZM80.3818 42.8544H87.3875V45.0149H80.3818V42.8544ZM92.4956 48V34.9091H97.6604C98.649 34.9091 99.4928 35.0859 100.192 35.4396C100.895 35.7891 101.43 36.2855 101.796 36.929C102.167 37.5682 102.352 38.3203 102.352 39.1854C102.352 40.0547 102.165 40.8026 101.79 41.429C101.415 42.0511 100.871 42.5284 100.16 42.8608C99.4523 43.1932 98.5957 43.3594 97.5901 43.3594H94.132V41.1349H97.1426C97.671 41.1349 98.1099 41.0625 98.4594 40.9176C98.8088 40.7727 99.0687 40.5554 99.2392 40.2656C99.4139 39.9759 99.5013 39.6158 99.5013 39.1854C99.5013 38.7507 99.4139 38.3842 99.2392 38.0859C99.0687 37.7876 98.8067 37.5618 98.453 37.4084C98.1036 37.2507 97.6625 37.1719 97.1298 37.1719H95.2634V48H92.4956ZM99.5652 42.0426L102.819 48H99.7634L96.5801 42.0426H99.5652Z" fill="white"/>
</g>
</g>
<defs>
<clipPath id="clip0_59_31">
<rect width="121" height="66" fill="white"/>
</clipPath>
<clipPath id="clip1_59_31">
<rect width="126" height="99" fill="white" transform="translate(-1 -4)"/>
</clipPath>
</defs>
</svg>
