<svg width="54" height="54" viewBox="0 0 54 54" fill="none" xmlns="http://www.w3.org/2000/svg">
<path d="M22.4072 9.90146C10.4538 9.90146 0.729019 19.6283 0.729019 31.5853C0.729019 35.3445 1.70429 39.0353 3.55406 42.2887L0.0461501 52.8147C-0.0582146 53.1288 0.0173598 53.4735 0.243183 53.7147C0.415925 53.8992 0.654344 54 0.899961 54C0.976435 54 1.05291 53.9901 1.12938 53.9703L12.6347 50.9419C15.6478 52.4664 19.0189 53.271 22.4072 53.271C34.3605 53.2701 44.0854 43.5423 44.0854 31.5853C44.0854 19.6283 34.3605 9.90146 22.4072 9.90146ZM12.596 35.1006C10.6113 35.1006 8.99722 33.4861 8.99722 31.5007C8.99722 29.5154 10.6113 27.9009 12.596 27.9009C14.5807 27.9009 16.1948 29.5154 16.1948 31.5007C16.1948 33.4861 14.5807 35.1006 12.596 35.1006ZM22.4927 35.1006C20.5079 35.1006 18.8939 33.4861 18.8939 31.5007C18.8939 29.5154 20.5079 27.9009 22.4927 27.9009C24.4774 27.9009 26.0914 29.5154 26.0914 31.5007C26.0914 33.4861 24.4774 35.1006 22.4927 35.1006ZM32.3893 35.1006C30.4046 35.1006 28.7905 33.4861 28.7905 31.5007C28.7905 29.5154 30.4046 27.9009 32.3893 27.9009C34.374 27.9009 35.9881 29.5154 35.9881 31.5007C35.9881 33.4861 34.374 35.1006 32.3893 35.1006Z" fill="url(#paint0_linear_33_17)"/>
<path d="M53.8812 42.754L50.4273 32.3881C52.2771 29.1356 53.2524 25.444 53.2524 21.6848C53.2524 9.72778 43.5275 0 31.5742 0C24.1589 0 17.3383 3.80057 13.3832 9.90597C16.1624 8.74411 19.2106 8.09973 22.4063 8.09973C35.3529 8.10153 45.8847 18.6366 45.8847 31.5853C45.8847 35.1816 45.0696 38.5898 43.6193 41.6398L52.8529 44.0697C52.9294 44.0895 53.0058 44.0994 53.0823 44.0994C53.0886 44.0994 53.0949 44.0994 53.1003 44.0994C53.5978 44.0994 54 43.6971 54 43.1995C53.9991 43.0384 53.9568 42.8863 53.8812 42.754Z" fill="url(#paint1_linear_33_17)"/>
<defs>
<linearGradient id="paint0_linear_33_17" x1="20.0386" y1="-24.1843" x2="21.2423" y2="81.2811" gradientUnits="userSpaceOnUse">
<stop stop-color="#F96360"/>
<stop offset="1" stop-color="#677DB7"/>
</linearGradient>
<linearGradient id="paint1_linear_33_17" x1="31.8452" y1="-34.0865" x2="33.1518" y2="71.3787" gradientUnits="userSpaceOnUse">
<stop stop-color="#F96360"/>
<stop offset="1" stop-color="#677DB7"/>
</linearGradient>
</defs>
</svg>
