<svg width="84" height="84" viewBox="0 0 84 84" fill="none" xmlns="http://www.w3.org/2000/svg">
<path d="M34.4063 49.9468C38.177 53.2707 41.2536 55.5872 46.4284 55.5872H63.787C66.1326 55.5872 68.0295 54.5201 69.1292 52.5827C70.1585 50.7691 70.2866 48.3793 69.4612 46.8027C70.0392 46.5393 70.5622 46.126 71.0082 45.5716C72.6117 43.5766 72.8796 40.1518 72.1233 38.2041C71.9772 37.828 71.8041 37.5229 71.6171 37.2742C71.9247 37.0217 72.2298 36.6782 72.5105 36.2136C73.9473 33.8424 74.0499 29.4281 72.7208 27.1306C72.5156 26.7755 72.2786 26.4686 72.0158 26.2122C72.7772 25.3412 73.2412 23.9827 73.2412 22.3728C73.2425 19.403 71.5045 16.2057 67.6848 16.2018L53.4984 16.1871C56.4106 11.9388 56.2003 5.97937 54.4097 3.09607C53.3355 1.36764 51.9103 1.09976 50.8016 1.45033C49.5481 1.48104 48.424 2.82754 46.6988 4.89696C46.0732 5.64613 45.4042 6.44977 44.716 7.18609C38.7661 13.5545 36.8218 15.6469 36.1514 16.3985L34.3469 17.1648C33.6411 15.4895 31.983 14.3099 30.0542 14.3099H19.1966C16.6319 14.3099 14.5453 16.3992 14.5453 18.9666V48.3357C14.5453 50.9031 16.6319 52.9917 19.1966 52.9917H30.0543C32.053 52.9916 33.7474 51.7191 34.4063 49.9468ZM34.7108 19.8618L37.4358 18.7045C37.6383 18.6186 37.8139 18.4846 37.9484 18.3154C38.2779 17.9406 41.8231 14.1274 46.6335 8.97791C47.3641 8.19737 48.0498 7.37378 48.7138 6.57788C49.4855 5.65374 50.5236 4.40857 51.003 4.09515C51.1926 4.09384 51.3811 4.05092 51.5554 3.96823C51.7668 3.87531 52.0347 4.24701 52.1796 4.48089C53.6126 6.78932 53.7613 13.2531 49.6931 16.4664C49.2547 16.8125 49.0842 17.3983 49.2676 17.9263C49.4496 18.4543 49.9469 18.8081 50.5058 18.8088L67.6824 18.8268C70.4765 18.8294 70.6175 21.7799 70.6163 22.3715C70.6163 23.8243 70.0421 24.6228 69.8011 24.6241L69.5704 24.633C68.5489 24.6619 67.7939 25.3802 67.8144 26.305C67.8324 27.1164 68.5309 27.9559 69.7369 27.9052C69.8601 27.9084 70.133 27.8988 70.4483 28.4448C71.3097 29.9342 71.2148 33.2878 70.2663 34.8535C70.0791 35.1629 69.8933 35.3225 69.8036 35.3225C69.8036 35.3225 69.8023 35.3225 69.801 35.3225C69.6985 35.3199 69.5947 35.3257 69.492 35.3456C68.5499 35.5308 67.9078 36.2627 67.9283 37.1259C67.9488 37.9898 68.6179 38.689 69.4702 38.7979C69.8637 39.0953 70.2277 41.2397 69.4433 43.0956C68.773 44.6753 67.9143 44.5439 67.636 44.4972C67.5693 44.4869 67.5015 44.4818 67.4348 44.4818L66.9235 44.4838C66.2583 44.448 65.6481 44.7446 65.3149 45.2772C65.0085 45.7694 64.9905 46.3885 65.27 46.8929C65.5725 47.4389 66.1646 47.7652 66.8824 47.7652C66.8824 47.7652 66.8824 47.7652 66.8837 47.7652C66.8939 47.7536 66.9824 47.7587 67.1042 47.9651C67.5054 48.6367 67.5208 50.0979 66.8465 51.2867C66.2147 52.3987 65.1855 52.962 63.787 52.962H46.4284C41.7206 52.962 39.1789 50.6947 34.9684 46.9384L34.7108 46.7084V19.8618ZM32.0858 18.9935V47.2969V48.3357C32.0858 49.4553 31.1745 50.3667 30.0542 50.3667H19.1966C18.0789 50.3667 17.1703 49.4554 17.1703 48.3357V18.9666C17.1703 17.8463 18.079 16.9349 19.1966 16.9349H30.0543C31.1745 16.9349 32.0859 17.8462 32.0859 18.9666V18.9935H32.0858Z" fill="#FF706D"/>
<path d="M23.2713 68.648L17.3548 67.5033L14.4375 62.2284C14.2068 61.8105 13.7672 61.551 13.2891 61.551C12.8122 61.551 12.3714 61.8106 12.1406 62.2277L9.22216 67.5033L3.30817 68.648C2.84039 68.7389 2.45714 69.0773 2.30975 69.5312C2.16236 69.9855 2.27261 70.4842 2.59942 70.8328L6.71253 75.2349L5.97163 81.2136C5.91269 81.6878 6.11653 82.1564 6.50227 82.437C6.73038 82.6029 7.00089 82.6875 7.27389 82.6875C7.46236 82.6875 7.65333 82.6464 7.83013 82.5639L13.2891 80.0113L18.7454 82.5639C19.1773 82.7658 19.6862 82.7197 20.0733 82.437C20.459 82.1562 20.6628 81.6878 20.6039 81.2136L19.863 75.2349L23.9799 70.8334C24.3054 70.4848 24.417 69.9862 24.2696 69.5318C24.1222 69.0774 23.7391 68.7391 23.2713 68.648ZM17.5265 73.8904C17.2612 74.1749 17.1343 74.562 17.183 74.9485L17.7072 79.1801L13.8453 77.3735C13.4916 77.2081 13.0866 77.2081 12.7327 77.3735L8.86831 79.1808L9.39253 74.9485C9.44122 74.5628 9.3143 74.1749 9.04904 73.891L6.13687 70.7745L10.3231 69.9644C10.7037 69.8901 11.0332 69.651 11.2216 69.3113L13.2891 65.575L15.3539 69.3107C15.5424 69.651 15.8717 69.89 16.2524 69.9643L20.4412 70.7744L17.5265 73.8904Z" fill="#FF706D"/>
<path d="M52.3667 68.6479L46.4502 67.5033L43.5342 62.2284C43.0727 61.3927 41.6988 61.3927 41.2373 62.2284L38.3213 67.5033L32.4048 68.6479C31.9358 68.7389 31.5525 69.0773 31.4051 69.5311C31.2577 69.9855 31.368 70.4841 31.6948 70.8327L35.8079 75.2349L35.067 81.2136C35.0081 81.6878 35.2119 82.1563 35.5976 82.4369C35.9834 82.7183 36.4935 82.7677 36.9255 82.5639L42.3858 80.0113L47.8409 82.5639C48.0178 82.6465 48.2075 82.6875 48.3971 82.6875C48.6688 82.6875 48.9406 82.6028 49.1688 82.4369C49.5545 82.1569 49.7583 81.6884 49.6994 81.2142L48.9624 75.2349L53.0769 70.8334C53.4037 70.4841 53.5139 69.9855 53.3665 69.5311C53.2191 69.0774 52.8359 68.739 52.3667 68.6479ZM46.6258 73.891C46.3605 74.1749 46.2348 74.5619 46.2823 74.9478L46.804 79.1808L42.9421 77.3734C42.5884 77.2081 42.1834 77.2081 41.8295 77.3734L37.9638 79.1808L38.488 74.9485C38.5367 74.5627 38.4098 74.1749 38.1445 73.891L35.2325 70.7745L39.4225 69.9644C39.8045 69.8901 40.1339 69.651 40.3222 69.3108L42.3859 65.5771L44.4495 69.3108C44.638 69.6511 44.9673 69.8901 45.3492 69.9644L49.538 70.7745L46.6258 73.891Z" fill="#FF706D"/>
<path d="M81.6903 69.5312C81.5429 69.0774 81.1596 68.7391 80.6919 68.648L74.7754 67.5033L71.8594 62.2284C71.6287 61.8105 71.1891 61.551 70.711 61.551C70.2328 61.551 69.7933 61.8106 69.5625 62.2284L66.6452 67.5033L60.7287 68.648C60.261 68.7389 59.8777 69.0773 59.7303 69.5317C59.5829 69.9861 59.6945 70.4847 60.02 70.8333L64.1369 75.2348L63.396 81.2135C63.3371 81.6877 63.5409 82.1562 63.9266 82.4368C64.3124 82.7182 64.8226 82.765 65.2545 82.5638L70.7108 80.0112L76.1698 82.5638C76.3467 82.6466 76.5365 82.6875 76.7261 82.6875C76.9991 82.6875 77.2696 82.6029 77.4978 82.437C77.8835 82.1562 78.0873 81.6878 78.0284 81.2136L77.2875 75.2349L81.4006 70.8328C81.7276 70.484 81.8377 69.9855 81.6903 69.5312ZM74.951 73.891C74.6857 74.1749 74.5588 74.5626 74.6075 74.9485L75.1317 79.1808L71.2673 77.3735C71.0904 77.2908 70.9007 77.2498 70.7111 77.2498C70.5214 77.2498 70.3316 77.2909 70.1549 77.3735L66.293 79.1801L66.8172 74.9485C66.8659 74.5621 66.7389 74.1749 66.4737 73.8904L63.559 70.7745L67.7477 69.9644C68.1283 69.8901 68.4578 69.651 68.6463 69.3108L70.7111 65.5765L72.7747 69.3108C72.9632 69.6511 73.2925 69.8901 73.6733 69.9644L77.8633 70.7745L74.951 73.891Z" fill="#FF706D"/>
</svg>
