<svg width="84" height="84" viewBox="0 0 84 84" fill="none" xmlns="http://www.w3.org/2000/svg">
<path d="M50.4002 41.9991C53.2281 41.9991 55.5507 39.8837 55.9231 37.1552L61.04 33.3193C61.6588 32.8558 61.7848 31.9781 61.3201 31.3592C60.8566 30.7404 59.9789 30.6131 59.36 31.0792L55.7915 33.756C55.2582 32.0494 53.6817 30.7993 51.8003 30.7993H46.2004C43.8848 30.7993 42.0004 32.6837 42.0004 34.9992C42.0004 32.6837 40.116 30.7993 37.8004 30.7993H32.2002C30.3186 30.7993 28.7423 32.0494 28.2088 33.756L24.6403 31.0792C24.0229 30.6157 23.1437 30.7417 22.6803 31.3592C22.2155 31.9781 22.3415 32.8558 22.9603 33.3193L28.0772 37.1552C28.4496 39.8837 30.7708 41.9991 33.6002 41.9991H36.4002C39.4886 41.9991 42.0001 39.4875 42.0001 36.3992C42.0001 39.4876 44.5117 41.9991 47.6 41.9991H50.4002ZM39.2002 36.3992C39.2002 37.9433 37.943 39.1992 36.4002 39.1992H33.6002C32.0573 39.1992 30.8001 37.9435 30.8001 36.3992V34.9992C30.8001 34.2278 31.4273 33.5993 32.2001 33.5993H37.8C38.5727 33.5993 39.1999 34.2278 39.1999 34.9992V36.3992H39.2002ZM44.8001 36.3992V34.9992C44.8001 34.2278 45.4273 33.5993 46.2 33.5993H51.7999C52.5727 33.5993 53.1999 34.2278 53.1999 34.9992V36.3992C53.1999 37.9433 51.9427 39.1992 50.3998 39.1992H47.5998C46.0573 39.199 44.8001 37.9433 44.8001 36.3992Z" fill="#FF706D"/>
<path d="M83.9578 82.2585L82.5271 76.5564C81.8088 74.3977 77.5585 67.4536 53.2002 67.2646V65.7989C53.2002 65.0262 52.5745 64.399 51.8003 64.399C51.0261 64.399 50.4003 65.0262 50.4003 65.7989V68.5989C50.4003 68.6088 50.4059 68.6172 50.4059 68.627C50.4059 68.6354 50.4003 68.6424 50.4003 68.6523C50.3948 69.5062 50.1134 76.999 42.0004 76.999C33.8874 76.999 33.6061 69.4545 33.6005 68.5991V65.7991C33.6005 65.0264 32.9748 64.3992 32.2006 64.3992C31.4264 64.3992 30.8006 65.0264 30.8006 65.7991V67.2131C12.6593 67.3557 3.57473 70.2509 1.4426 76.6586L0.0426657 82.2585C-0.146332 83.0089 0.311398 83.769 1.06181 83.9567C1.80944 84.1472 2.57101 83.688 2.75853 82.9388L4.12778 77.4412C5.75461 72.5622 14.5156 70.1249 30.8927 70.003C31.4009 74.0111 34.1252 79.7987 42.0001 79.7987C49.8707 79.7987 52.5966 74.0463 53.1075 70.0591C72.2957 70.2005 78.9666 74.7294 79.8417 77.339L81.2416 82.9388C81.4013 83.5744 81.9711 83.9987 82.5983 83.9987C82.7103 83.9987 82.825 83.9861 82.9385 83.9567C83.6889 83.769 84.1454 83.0089 83.9578 82.2585Z" fill="#FF706D"/>
<path d="M9.61987 6.98821L41.8196 11.1882C41.8798 11.1952 41.94 11.1993 42.0002 11.1993C42.0605 11.1993 42.1207 11.1951 42.1809 11.1882L72.7999 7.19411V12.0549C71.9222 13.0419 69.9999 15.5044 69.9999 18.1995C69.9999 21.2809 72.5115 22.3994 74.1998 22.3994C75.8882 22.3994 78.3998 21.2809 78.3998 18.1995C78.3998 15.5044 76.4776 13.0419 75.5997 12.0549V5.59944C75.5997 5.4147 75.5605 5.23965 75.4948 5.07723C75.471 5.01981 75.4303 4.97502 75.3996 4.92187C75.345 4.82392 75.2903 4.72729 75.2149 4.64608C75.1658 4.59424 75.1071 4.55929 75.0511 4.51729C74.9714 4.45282 74.893 4.39129 74.8006 4.3465C74.732 4.31287 74.6592 4.29893 74.585 4.27793C74.5165 4.25693 74.4548 4.22051 74.3806 4.21066L42.1809 0.010703C42.0605 -0.00324215 41.94 -0.00324215 41.8196 0.010703L9.61987 4.21066C8.92262 4.30172 8.40057 4.8966 8.40057 5.59944C8.40057 6.30227 8.92278 6.89732 9.61987 6.98821ZM75.5999 18.1993C75.5999 19.3166 74.8424 19.5782 74.2 19.5992C73.5574 19.5782 72.8 19.3164 72.8 18.1993C72.8 17.0373 73.514 15.7409 74.2 14.7847C74.8859 15.741 75.5999 17.0374 75.5999 18.1993ZM42.0002 2.81073L63.3766 5.59944L42.0002 8.38831L20.6238 5.59944L42.0002 2.81073Z" fill="#FF706D"/>
<path d="M45.2272 50.7937C45.1824 50.8343 44.1268 51.7989 42.0002 51.7989C39.9045 51.7989 38.8488 50.8623 38.7761 50.7952C38.2316 50.2618 37.3537 50.2659 36.8105 50.8092C36.263 51.3566 36.263 52.2414 36.8105 52.7887C36.9952 52.9734 38.7144 54.599 42.0002 54.599C45.2861 54.599 47.0052 52.9736 47.19 52.7887C47.7304 52.2483 47.7289 51.3832 47.1983 50.8343C46.665 50.2856 45.7858 50.2702 45.2272 50.7937Z" fill="#FF706D"/>
<path d="M19.6004 28.2387C17.9707 28.8168 16.8003 30.3736 16.8003 32.1993V37.7992C16.8003 39.7521 18.14 41.3985 19.9503 41.8661C20.6992 44.0753 22.7685 50.0658 23.9486 52.4247C26.1718 56.8724 32.476 64.3988 42.0001 64.3988C51.5241 64.3988 57.8283 56.8725 60.0515 52.4247C61.2318 50.0657 63.3009 44.0751 64.0499 41.8661C65.8601 41.3985 67.1998 39.7521 67.1998 37.7992V32.1993C67.1998 30.3738 66.0294 28.8168 64.3998 28.2387V26.5994C64.3998 25.8266 63.7741 25.1994 62.9999 25.1994C62.2257 25.1994 61.5999 25.8266 61.5999 26.5994V29.3994C61.5999 30.1721 62.2257 30.7993 62.9999 30.7993C63.7726 30.7993 64.3998 31.4279 64.3998 32.1993V37.7992C64.3998 38.5706 63.7726 39.1991 62.9999 39.1991C62.3965 39.1991 61.8616 39.5841 61.6726 40.1567C61.6433 40.2392 58.8867 48.4936 57.5483 51.1732C57.334 51.5988 52.2171 61.599 42.0001 61.599C31.783 61.599 26.666 51.5988 26.4519 51.1732C25.1121 48.4936 22.3569 40.2394 22.3275 40.1567C22.1371 39.5841 21.6037 39.1991 21.0003 39.1991C20.2276 39.1991 19.6004 38.5706 19.6004 37.7992V32.1993C19.6004 31.4279 20.2276 30.7993 21.0003 30.7993C21.7745 30.7993 22.4002 30.1721 22.4002 29.3994V26.5992C22.4002 25.8265 21.7745 25.1993 21.0003 25.1993C20.2261 25.1993 19.6004 25.8265 19.6004 26.5992V28.2387Z" fill="#FF706D"/>
<path d="M21.0004 9.79938C20.2262 9.79938 19.6005 10.4266 19.6005 11.1993V20.9992C19.6005 21.5297 19.9001 22.0142 20.3747 22.2521C20.7302 22.4285 29.2169 26.599 42.0002 26.599C54.7835 26.599 63.2702 22.4285 63.6258 22.2521C64.1004 22.014 64.4 21.5297 64.4 20.9992V11.1995C64.4 10.4267 63.7742 9.79954 63 9.79954C62.2258 9.79954 61.6001 10.4267 61.6001 11.1995V20.0935C59.2845 21.075 51.9569 23.7993 42.0002 23.7993C32.0435 23.7993 24.7159 21.075 22.4004 20.0935V11.1995C22.4004 10.4266 21.7747 9.79938 21.0004 9.79938Z" fill="#FF706D"/>
</svg>
