<svg width="38" height="38" viewBox="0 0 38 38" fill="none" xmlns="http://www.w3.org/2000/svg">
<path d="M37.5005 19C37.5005 29.2172 29.2177 37.5 19.0005 37.5C8.78325 37.5 0.500488 29.2172 0.500488 19C0.500488 8.78276 8.78325 0.5 19.0005 0.5C29.2177 0.5 37.5005 8.78276 37.5005 19Z" stroke="white"/>
<path d="M7.07658 19.9294C9.29767 18.706 11.777 17.6849 14.0936 16.6586C18.079 14.9775 22.0802 13.3256 26.1219 11.7877C26.9082 11.5257 28.3211 11.2694 28.4596 12.4348C28.3838 14.0843 28.0717 15.7242 27.8577 17.364C27.3143 20.9702 26.6864 24.5641 26.074 28.1584C25.8631 29.3556 24.3632 29.9754 23.4036 29.2092C21.0973 27.6514 18.7733 26.1088 16.4965 24.5148C15.7506 23.757 16.4422 22.6687 17.1083 22.1275C19.0079 20.2555 21.0223 18.665 22.8226 16.6963C23.3082 15.5236 21.8734 16.5119 21.4001 16.8148C18.7996 18.6068 16.2628 20.5082 13.5211 22.0831C12.1207 22.8541 10.4884 22.1952 9.08859 21.765C7.83346 21.2454 5.99425 20.7219 7.07646 19.9295L7.07658 19.9294Z" fill="white"/>
</svg>
