<svg width="38" height="38" viewBox="0 0 38 38" fill="none" xmlns="http://www.w3.org/2000/svg">
<circle cx="19.0005" cy="19" r="18.5" stroke="white"/>
<path fill-rule="evenodd" clip-rule="evenodd" d="M28.5206 14.8257C28.6688 14.3599 28.5206 14.0212 27.8643 14.0212H25.6836C25.1332 14.0212 24.8791 14.3176 24.7309 14.6352C24.7309 14.6352 23.6088 17.3451 22.0421 19.1023C21.534 19.6104 21.3011 19.7798 21.0259 19.7798C20.8777 19.7798 20.6872 19.6104 20.6872 19.1447V14.8045C20.6872 14.2541 20.5178 14 20.052 14H16.6222C16.2835 14 16.0718 14.2541 16.0718 14.5081C16.0718 15.0374 16.8551 15.1644 16.9398 16.6464V19.8645C16.9398 20.5632 16.8128 20.6902 16.5375 20.6902C15.7965 20.6902 13.997 17.9591 12.9172 14.8469C12.7055 14.2329 12.4938 14 11.9434 14H9.74148C9.10635 14 9.00049 14.2964 9.00049 14.614C9.00049 15.1856 9.74148 18.0649 12.4514 21.8758C14.251 24.4799 16.8128 25.8772 19.1205 25.8772C20.5178 25.8772 20.6872 25.5596 20.6872 25.0304V23.0614C20.6872 22.4263 20.8142 22.3204 21.2588 22.3204C21.5764 22.3204 22.148 22.4898 23.4394 23.7389C24.9214 25.2209 25.1755 25.8984 26.0012 25.8984H28.1819C28.817 25.8984 29.1134 25.5808 28.944 24.9668C28.7535 24.3529 28.0337 23.4637 27.1021 22.4051C26.594 21.8123 25.8318 21.156 25.5989 20.8384C25.2814 20.415 25.366 20.2456 25.5989 19.8645C25.5778 19.8645 28.2454 16.096 28.5206 14.8257Z" fill="white"/>
</svg>
