<svg width="38" height="38" viewBox="0 0 38 38" fill="none" xmlns="http://www.w3.org/2000/svg">
<path d="M37.5005 19C37.5005 29.2173 29.2178 37.5 19.0005 37.5C8.78322 37.5 0.500488 29.2173 0.500488 19C0.500488 8.78273 8.78322 0.5 19.0005 0.5C29.2178 0.5 37.5005 8.78273 37.5005 19Z" stroke="white"/>
<path fill-rule="evenodd" clip-rule="evenodd" d="M19.6268 29.5708H19.6221C17.7312 29.5701 15.8733 29.0957 14.2231 28.1956L8.23383 29.7667L9.83665 23.9122C8.84795 22.1988 8.3277 20.2552 8.32855 18.264C8.33103 12.0347 13.3993 6.96667 19.6267 6.96667C22.649 6.96798 25.4857 8.14457 27.6187 10.2801C29.7518 12.4156 30.9259 15.2541 30.9247 18.2729C30.9222 24.5007 25.8559 29.5682 19.6268 29.5708ZM14.5006 26.1503L14.8435 26.3538C16.2852 27.2093 17.9379 27.662 19.623 27.6627H19.6268C24.8025 27.6627 29.015 23.4501 29.0171 18.2722C29.0181 15.763 28.0422 13.4038 26.2693 11.6288C24.4964 9.8538 22.1386 8.87581 19.6305 8.87494C14.4507 8.87494 10.2381 13.0871 10.2361 18.2646C10.2354 20.039 10.7318 21.767 11.6718 23.2621L11.8951 23.6173L10.9465 27.0826L14.5006 26.1503ZM24.932 20.7053C25.1289 20.8005 25.2618 20.8647 25.3186 20.9595C25.3892 21.0772 25.3892 21.6424 25.154 22.3019C24.9187 22.9613 23.7909 23.5632 23.2485 23.6442C22.7622 23.7169 22.1467 23.7472 21.4705 23.5323C21.0604 23.4022 20.5346 23.2285 19.8611 22.9377C17.2146 21.7949 15.4261 19.2299 15.0881 18.7451C15.0644 18.7112 15.0479 18.6874 15.0386 18.6751L15.0364 18.672C14.887 18.4727 13.8859 17.1371 13.8859 15.7548C13.8859 14.4544 14.5247 13.7729 14.8187 13.4591C14.8389 13.4376 14.8574 13.4179 14.874 13.3998C15.1327 13.1171 15.4386 13.0465 15.6268 13.0465C15.8149 13.0465 16.0033 13.0482 16.1678 13.0565C16.1881 13.0575 16.2092 13.0574 16.231 13.0572C16.3955 13.0563 16.6006 13.0551 16.803 13.5411C16.8808 13.7281 16.9947 14.0054 17.1148 14.2978C17.3577 14.8892 17.6261 15.5426 17.6733 15.6372C17.7439 15.7785 17.791 15.9433 17.6969 16.1318C17.6828 16.16 17.6697 16.1867 17.6572 16.2122C17.5865 16.3565 17.5345 16.4626 17.4146 16.6027C17.3674 16.6577 17.3187 16.7171 17.2699 16.7765C17.1728 16.8948 17.0757 17.013 16.9911 17.0973C16.8498 17.238 16.7027 17.3907 16.8674 17.6734C17.032 17.956 17.5986 18.8804 18.4378 19.629C19.3399 20.4336 20.124 20.7737 20.5214 20.9461C20.599 20.9798 20.6619 21.007 20.708 21.0301C20.9902 21.1715 21.1549 21.1478 21.3196 20.9595C21.4843 20.7711 22.0253 20.1351 22.2134 19.8526C22.4016 19.5701 22.5899 19.6171 22.8486 19.7113C23.1074 19.8056 24.4953 20.4884 24.7776 20.6297C24.8327 20.6573 24.8842 20.6822 24.932 20.7053Z" fill="#FDFDFD"/>
</svg>
