<svg width="38" height="38" viewBox="0 0 38 38" fill="none" xmlns="http://www.w3.org/2000/svg">
<path d="M0.500488 19C0.500488 8.78273 8.78322 0.5 19.0005 0.5C29.2178 0.5 37.5005 8.78273 37.5005 19C37.5005 29.2173 29.2178 37.5 19.0005 37.5C8.78322 37.5 0.500488 29.2173 0.500488 19Z" stroke="white"/>
<path d="M28.7103 14.308C28.4772 13.4126 27.7905 12.7075 26.9184 12.4682C25.3381 12.0333 19.0005 12.0333 19.0005 12.0333C19.0005 12.0333 12.6629 12.0333 11.0824 12.4682C10.2104 12.7075 9.52364 13.4126 9.29057 14.308C8.86716 15.9307 8.86716 19.3167 8.86716 19.3167C8.86716 19.3167 8.86716 22.7025 9.29057 24.3254C9.52364 25.2207 10.2104 25.9258 11.0824 26.1652C12.6629 26.6 19.0005 26.6 19.0005 26.6C19.0005 26.6 25.3381 26.6 26.9184 26.1652C27.7905 25.9258 28.4772 25.2207 28.7103 24.3254C29.1338 22.7025 29.1338 19.3167 29.1338 19.3167C29.1338 19.3167 29.1338 15.9307 28.7103 14.308" fill="white"/>
<path d="M17.1005 22.8V16.4667L22.1672 19.6335L17.1005 22.8Z" fill="#11151C"/>
</svg>
